<svg xmlns="http://www.w3.org/2000/svg" viewBox="0 0 100 100"><path d="M50 50 C62 38 62 20 50 10 C38 20 38 38 50 50Z" fill="#c79a3a" transform="rotate(0 50 50)"/><path d="M50 50 C62 38 62 20 50 10 C38 20 38 38 50 50Z" fill="#c79a3a" transform="rotate(30 50 50)"/><path d="M50 50 C62 38 62 20 50 10 C38 20 38 38 50 50Z" fill="#c79a3a" transform="rotate(60 50 50)"/><path d="M50 50 C62 38 62 20 50 10 C38 20 38 38 50 50Z" fill="#c79a3a" transform="rotate(90 50 50)"/><path d="M50 50 C62 38 62 20 50 10 C38 20 38 38 50 50Z" fill="#c79a3a" transform="rotate(120 50 50)"/><path d="M50 50 C62 38 62 20 50 10 C38 20 38 38 50 50Z" fill="#c79a3a" transform="rotate(150 50 50)"/><path d="M50 50 C62 38 62 20 50 10 C38 20 38 38 50 50Z" fill="#c79a3a" transform="rotate(180 50 50)"/><path d="M50 50 C62 38 62 20 50 10 C38 20 38 38 50 50Z" fill="#c79a3a" transform="rotate(210 50 50)"/><path d="M50 50 C62 38 62 20 50 10 C38 20 38 38 50 50Z" fill="#c79a3a" transform="rotate(240 50 50)"/><path d="M50 50 C62 38 62 20 50 10 C38 20 38 38 50 50Z" fill="#c79a3a" transform="rotate(270 50 50)"/><path d="M50 50 C62 38 62 20 50 10 C38 20 38 38 50 50Z" fill="#c79a3a" transform="rotate(300 50 50)"/><path d="M50 50 C62 38 62 20 50 10 C38 20 38 38 50 50Z" fill="#c79a3a" transform="rotate(330 50 50)"/><path d="M50 50 C62 38 62 20 50 10 C38 20 38 38 50 50Z" fill="#e08a1e" transform="rotate(15 50 50) scale(0.62) translate(31 31)"/><path d="M50 50 C62 38 62 20 50 10 C38 20 38 38 50 50Z" fill="#e08a1e" transform="rotate(45 50 50) scale(0.62) translate(31 31)"/><path d="M50 50 C62 38 62 20 50 10 C38 20 38 38 50 50Z" fill="#e08a1e" transform="rotate(75 50 50) scale(0.62) translate(31 31)"/><path d="M50 50 C62 38 62 20 50 10 C38 20 38 38 50 50Z" fill="#e08a1e" transform="rotate(105 50 50) scale(0.62) translate(31 31)"/><path d="M50 50 C62 38 62 20 50 10 C38 20 38 38 50 50Z" fill="#e08a1e" transform="rotate(135 50 50) scale(0.62) translate(31 31)"/><path d="M50 50 C62 38 62 20 50 10 C38 20 38 38 50 50Z" fill="#e08a1e" transform="rotate(165 50 50) scale(0.62) translate(31 31)"/><path d="M50 50 C62 38 62 20 50 10 C38 20 38 38 50 50Z" fill="#e08a1e" transform="rotate(195 50 50) scale(0.62) translate(31 31)"/><path d="M50 50 C62 38 62 20 50 10 C38 20 38 38 50 50Z" fill="#e08a1e" transform="rotate(225 50 50) scale(0.62) translate(31 31)"/><path d="M50 50 C62 38 62 20 50 10 C38 20 38 38 50 50Z" fill="#e08a1e" transform="rotate(255 50 50) scale(0.62) translate(31 31)"/><path d="M50 50 C62 38 62 20 50 10 C38 20 38 38 50 50Z" fill="#e08a1e" transform="rotate(285 50 50) scale(0.62) translate(31 31)"/><path d="M50 50 C62 38 62 20 50 10 C38 20 38 38 50 50Z" fill="#e08a1e" transform="rotate(315 50 50) scale(0.62) translate(31 31)"/><path d="M50 50 C62 38 62 20 50 10 C38 20 38 38 50 50Z" fill="#e08a1e" transform="rotate(345 50 50) scale(0.62) translate(31 31)"/><circle cx="50" cy="50" r="17" fill="#23201c"/><text x="50" y="58" text-anchor="middle" font-size="20" fill="#e8c874" font-family="serif">ॐ</text></svg>
